<svg width="18" height="18" viewBox="0 0 18 18" fill="none" xmlns="http://www.w3.org/2000/svg"><circle cx="9" cy="9" r="9" fill="#FF9C9C"/><path d="M10.106 6.384c0 1.008-.036 1.926-.108 2.754a56.51 56.51 0 01-.27 2.448H8.684a56.51 56.51 0 01-.27-2.448 31.993 31.993 0 01-.108-2.754V3h1.8v3.384zm.306 8.118c0 .324-.108.606-.324.846-.216.24-.51.36-.882.36s-.666-.12-.882-.36A1.224 1.224 0 018 14.502c0-.324.108-.606.324-.846.216-.24.51-.36.882-.36s.666.12.882.36c.216.24.324.522.324.846z" fill="#fff"/></svg>