<svg width="29" height="23" viewBox="0 0 29 23" fill="none" xmlns="http://www.w3.org/2000/svg">
<path d="M12.5 11.054L12.4755 9.55423L12.5003 9.55382L12.5251 9.55424L12.5 11.054ZM28.0748 10.2533C28.6508 10.8488 28.6349 11.7984 28.0394 12.3743L18.3354 21.7595C17.74 22.3355 16.7903 22.3196 16.2144 21.7241C15.6385 21.1286 15.6543 20.179 16.2498 19.6031L24.8756 11.2607L16.5332 2.63491C15.9572 2.03942 15.9731 1.08981 16.5686 0.513882C17.1641 -0.0620433 18.1137 -0.0461871 18.6896 0.549298L28.0748 10.2533ZM0.974973 9.74239L12.4755 9.55423L12.5246 12.5538L1.02405 12.742L0.974973 9.74239ZM12.5251 9.55424L27.0217 9.79629L26.9716 12.7959L12.475 12.5538L12.5251 9.55424Z" fill="white"/>
</svg>
